# xmcd CD database file
#
# Track frame offsets:
#	150
#	13085
#	25771
#	38412
#	48681
#	59996
#	70310
#	76014
#	86657
#	96745
#	107174
#	119796
#	132639
#	142259
#	155584
#
# Disc length: 2204 seconds
#
# Revision: 2
# Processed by: cddbd v1.5.2PL0 Copyright (c) Steve Scherf et al.
# Submitted via: CDex 1.70beta2
#
DISCID=e4089a0f
DTITLE=Various Artist - The Roots Of Country Music[CD2]
DYEAR=2005
DGENRE=Country
TTITLE0=Glen Campbell - Rhinestone Cowboy
TTITLE1=Lynn Anderson - Rose Garden
TTITLE2=Willie Nelson - Shelter Of Your Arms
TTITLE3=Waylon Jennings - White Lightening
TTITLE4=Patsy Cline - Walkin' After Midnight
TTITLE5=Gene Autry - San Antonio Rose
TTITLE6=Loretta Lynn - I Fall To Pieces
TTITLE7=Hank Locklin' - Please Help Me, I'm Falling
TTITLE8=Dolly Parton - Release Me
TTITLE9=Jim Reeves - Where Does A Broken Heart Go
TTITLE10=Hank Williams - Honky Tonkin'
TTITLE11=Kitty Wells - As Long As I Live
TTITLE12=Buck Owens - House Down The Block
TTITLE13=Hank Snow - The Texas Cowboy
TTITLE14=Charley Pride - Kiss An Angel Good Morning
EXTD=YEAR: 2005
EXTT0=
EXTT1=
EXTT2=
EXTT3=
EXTT4=
EXTT5=
EXTT6=
EXTT7=
EXTT8=
EXTT9=
EXTT10=
EXTT11=
EXTT12=
EXTT13=
EXTT14=
PLAYORDER=
